<svg width="125" height="40" viewBox="0 0 125 40" fill="none" xmlns="http://www.w3.org/2000/svg">
<path d="M97.9831 8.44834C98.4962 8.03779 98.7528 7.83252 99.0094 7.62724C102.576 4.59944 107.143 4.93301 110.197 8.52532C110.505 8.88455 110.659 8.91021 110.967 8.6023C111.172 8.37136 111.403 8.19175 111.608 7.96081C113.995 5.62581 117.151 4.93301 120.101 6.24164C123.206 7.62724 124.874 10.0649 124.9 13.4776C124.951 20.8418 124.925 28.1804 124.925 35.5446C124.925 38.1619 123.309 39.8041 120.717 39.8041C119.691 39.8041 118.665 39.7271 117.638 39.8297C116.586 39.9324 116.278 39.5988 116.278 38.4955C116.33 31.3108 116.304 24.1262 116.304 16.9416C116.304 16.6337 116.304 16.3514 116.304 16.0435C116.278 14.3757 115.611 13.6828 114.02 13.6059C112.583 13.5289 111.583 14.4013 111.429 15.8639C111.403 16.1975 111.429 16.5567 111.429 16.8903C111.429 23.0998 111.429 29.2837 111.429 35.4933C111.429 38.2132 109.863 39.8041 107.143 39.7784C105.758 39.7528 103.885 40.3943 103.089 39.4962C102.396 38.7264 102.858 36.9046 102.858 35.5446C102.858 29.1811 102.858 22.7919 102.858 16.4284C102.858 14.1704 101.396 13.0157 99.497 13.7855C98.3166 14.273 97.9317 15.2224 97.9317 16.4541C97.9574 22.407 97.9317 28.3343 97.9317 34.2873C97.9317 34.7492 97.9317 35.2367 97.9317 35.6986C97.8548 38.1875 96.2639 39.7528 93.8006 39.7784C92.7742 39.8041 91.7478 39.7014 90.7215 39.8041C89.6181 39.9067 89.2845 39.5988 89.3102 38.4185C89.3615 28.3343 89.3359 18.2502 89.3359 8.14043C89.3359 7.70422 89.3615 7.29367 89.3359 6.85746C89.2845 6.29296 89.5155 6.11334 90.08 6.11334C92.4406 6.139 94.7756 6.139 97.1363 6.11334C97.7265 6.11334 98.0087 6.2673 97.9574 6.90878C97.9061 7.37065 97.9574 7.7812 97.9831 8.44834Z" fill="#02B9EF"/>
<path d="M43.5852 22.3553C43.5852 25.8707 43.5852 29.3603 43.5852 32.8757C43.5595 37.443 41.1732 39.8037 36.6058 39.8294C34.6044 39.8294 32.5773 39.855 30.5759 39.8294C26.5217 39.778 23.5452 37.0838 23.3399 33.0296C23.186 30.1301 23.1603 27.2049 23.3143 24.3054C23.5195 20.1486 26.7013 17.2235 30.9094 17.1721C32.0128 17.1465 33.1418 17.1721 34.2451 17.1721C35.3228 17.1465 35.7334 16.5307 35.7077 15.5043C35.7077 14.4779 35.2459 14.016 34.2195 14.0674C33.0648 14.093 31.9101 14.093 30.7555 14.0674C27.9329 14.016 26.3677 12.4765 26.3934 9.70526C26.3934 8.57625 25.8802 7.06234 26.6243 6.3952C27.2658 5.83069 28.7284 6.18992 29.8317 6.18992C32.7056 6.16427 35.5538 6.18992 38.4276 6.18992C41.4811 6.18992 43.5595 8.26834 43.5852 11.3475C43.6108 14.9911 43.5852 18.686 43.5852 22.3553ZM35.7334 28.18C35.7334 27.7438 35.7334 27.3332 35.7334 26.897C35.7334 24.2798 35.7334 24.2798 33.1161 24.3824C31.8075 24.4337 31.089 25.1009 31.0634 26.4608C31.0377 27.5385 31.0377 28.5906 31.0634 29.6682C31.089 31.5157 31.9101 32.0032 34.5787 32.0802C36.5545 32.1315 35.5538 30.7459 35.7334 29.9762C35.836 29.4117 35.7077 28.7702 35.7334 28.18Z" fill="#06306F"/>
<path d="M66.422 19.5585C66.422 23.4844 66.4733 27.4359 66.3963 31.3618C66.345 34.3896 65.6266 37.1351 62.7014 38.7517C61.5211 39.3932 60.2381 39.7524 58.9038 39.778C55.953 39.8294 53.0022 39.7781 50.0513 39.8294C49.3329 39.8294 49.1789 39.5728 49.2046 38.9313C49.2559 37.8536 49.1789 36.8016 49.2302 35.7239C49.2815 33.6711 50.8468 32.1059 52.8995 32.0289C54.2338 31.9776 55.5424 32.0033 56.8767 32.0289C57.9544 32.0289 58.5446 31.5927 58.5446 30.438C58.5446 29.2577 57.9801 28.8472 56.9024 28.8215C55.1062 28.7702 53.3101 29.0268 51.5396 28.5136C48.4861 27.6155 46.2537 25.0752 46.1768 21.9191C46.0228 16.9156 46.1254 11.912 46.0998 6.9084C46.0998 6.34389 46.2794 6.16428 46.8439 6.18994C48.948 6.2156 51.0264 6.24126 53.1305 6.18994C54.0542 6.16428 53.9259 6.67747 53.9259 7.24197C53.9259 11.0139 53.9259 14.7602 53.9259 18.5321C53.9259 20.1743 54.6957 21.0467 56.1326 21.098C57.8261 21.1493 58.5702 20.4565 58.5702 18.7374C58.5702 14.9398 58.5959 11.1165 58.5446 7.31895C58.5446 6.42087 58.7755 6.16428 59.6736 6.18994C61.5467 6.26692 63.4455 6.29257 65.3187 6.18994C66.345 6.13862 66.499 6.52351 66.4733 7.42159C66.3963 11.4501 66.422 15.5043 66.422 19.5585Z" fill="#06306F"/>
<path d="M1.04199 25.3837C1.04199 21.2012 1.04199 16.9931 1.04199 12.8106C1.04199 8.70512 3.5566 6.13917 7.68776 6.19049C10.382 6.21615 13.0762 5.88258 15.7448 6.39577C19.1575 7.06291 21.3129 9.70582 21.3385 13.2212C21.3642 16.9418 21.3385 20.6624 21.3385 24.383C21.3385 29.053 18.593 31.9012 13.923 32.0295C12.5117 32.0808 11.1005 32.0551 9.68919 32.0295C9.04771 32.0038 8.76545 32.2091 8.79111 32.9019C8.84243 33.9283 8.81677 34.9546 8.79111 35.981C8.73979 38.1877 7.17457 39.7786 4.99353 39.8043C3.71056 39.8299 2.09402 40.3431 1.27292 39.599C0.503137 38.9062 1.06764 37.264 1.04199 36.0323C1.01633 32.4913 1.04199 28.9247 1.04199 25.3837ZM8.79111 19.0972C8.79111 19.9183 8.79111 20.7137 8.79111 21.5348C8.79111 24.4343 8.79111 24.4343 11.6906 24.1777C12.9479 24.0751 13.5381 23.4592 13.5638 22.2019C13.5894 20.765 13.5124 19.3024 13.5894 17.8655C13.7434 13.7087 12.9736 14.1192 9.58656 14.0936C8.97073 14.0936 8.76545 14.2732 8.76545 14.889C8.81677 16.2746 8.79111 17.6859 8.79111 19.0972Z" fill="#06306F"/>
<path d="M73.6837 25.4345C73.6837 22.0218 73.658 18.5835 73.7093 15.1708C73.7093 14.3753 73.5297 14.0417 72.6573 14.0674C71.5026 14.1187 69.9631 14.4523 69.3216 13.8878C68.5261 13.1437 69.142 11.5528 69.0393 10.3211C69.0393 10.2442 69.0393 10.1415 69.0393 10.0645C69.0393 8.85855 68.6544 7.44729 69.1676 6.54921C69.6808 5.65113 71.246 6.21564 72.3494 5.93338C74.5304 5.36888 76.1726 4.11157 77.5069 2.36673C78.4306 1.1864 79.5853 0.339645 81.0736 0.0573918C81.869 -0.0965643 82.3565 0.00607387 82.3052 1.03245C82.2282 2.46937 82.3052 3.93196 82.2796 5.39454C82.2539 6.01037 82.4848 6.21564 83.1007 6.18998C84.127 6.16432 85.1534 6.21564 86.1798 6.16432C86.7956 6.13866 87.0009 6.3696 86.9752 6.98542C86.9496 9.08949 86.9496 11.1679 86.9752 13.272C86.9752 13.8621 86.8213 14.17 86.1798 14.0931C86.0515 14.0674 85.9232 14.0931 85.7949 14.0931C84.6659 14.1957 83.1007 13.5799 82.5105 14.3497C81.946 15.0681 82.3052 16.5564 82.3052 17.711C82.3052 24.6904 82.2796 31.6441 82.3309 38.6234C82.3309 39.5985 82.0743 39.9064 81.0992 39.8294C80.1755 39.7524 79.2261 39.8294 78.2767 39.8037C75.5055 39.7011 73.6837 37.828 73.6837 35.0568C73.6837 31.8493 73.6837 28.6419 73.6837 25.4345Z" fill="#02B9EF"/>
</svg>
