<svg width="133" height="40" viewBox="0 0 133 40" fill="none" xmlns="http://www.w3.org/2000/svg">
<path fill-rule="evenodd" clip-rule="evenodd" d="M82.4235 31.2816C74.7312 36.9695 63.5424 39.9996 53.8921 39.9996C40.3723 39.9996 28.2512 35.0112 19.0205 26.713C18.3212 26.0605 18.9273 25.1745 19.813 25.6873C29.743 31.4681 42.0041 34.918 54.6846 34.918C63.2161 34.918 72.6332 33.1466 81.3045 29.4634C82.6095 28.9507 83.6821 30.3493 82.4234 31.2816H82.4235Z" fill="#FF9900"/>
<path fill-rule="evenodd" clip-rule="evenodd" d="M85.6404 27.5987C84.6617 26.3399 79.1136 26.9926 76.6428 27.3189C75.8969 27.4121 75.757 26.7595 76.4563 26.2933C80.8852 23.1697 88.1113 24.1021 88.9504 25.1277C89.7896 26.1534 88.7174 33.4256 84.5675 36.8759C83.915 37.3887 83.3088 37.109 83.5888 36.4097C84.5215 34.0786 86.6194 28.9036 85.6404 27.5987Z" fill="#FF9900"/>
<path fill-rule="evenodd" clip-rule="evenodd" d="M76.7826 4.38296V1.35191C76.7773 1.25256 76.7929 1.1532 76.8285 1.0603C76.8642 0.967397 76.9189 0.883028 76.9893 0.812675C77.0596 0.742322 77.144 0.687559 77.2369 0.651944C77.3298 0.61633 77.4292 0.60066 77.5285 0.605955H91.0483C91.2518 0.601671 91.4489 0.677424 91.5971 0.816923C91.7453 0.956423 91.8329 1.14852 91.8409 1.35191V3.91601C91.8409 4.33559 91.468 4.89473 90.8153 5.8275L83.8224 15.8042C86.4332 15.7575 89.1841 16.1304 91.5147 17.4354C92.0275 17.7151 92.1672 18.1814 92.214 18.6009V21.8177C92.214 22.2839 91.7478 22.7964 91.2353 22.5169C87.0861 20.3257 81.5383 20.0927 76.9697 22.5636C76.5034 22.7967 75.9909 22.3306 75.9909 21.8643V18.7877C75.9909 18.3215 75.9909 17.4828 76.5037 16.7365L84.6156 5.12821H77.5752C77.3718 5.1325 77.1748 5.05684 77.0266 4.91749C76.8784 4.77815 76.7908 4.58622 76.7826 4.38296ZM27.5054 23.17H23.4029C23.219 23.1515 23.0464 23.0729 22.9116 22.9466C22.7768 22.8202 22.6873 22.653 22.6569 22.4707V1.39858C22.665 1.19521 22.7525 1.00314 22.9007 0.86364C23.0489 0.724145 23.2459 0.648375 23.4494 0.652622H27.2722C27.4613 0.655481 27.6425 0.72872 27.7804 0.858031C27.9184 0.987342 28.0032 1.16344 28.0182 1.35191V4.10254H28.1114C29.0901 1.44524 31.0019 0.186524 33.5193 0.186524C36.0834 0.186524 37.715 1.44524 38.834 4.10254C39.8128 1.44524 42.0974 0.186524 44.522 0.186524C46.2469 0.186524 48.1117 0.885813 49.2773 2.51758C50.5822 4.28906 50.3029 6.85317 50.3029 9.13756V22.4708C50.2949 22.6742 50.2073 22.8663 50.0592 23.0058C49.911 23.1453 49.7139 23.221 49.5105 23.2168H45.454C45.0344 23.1701 44.7081 22.8439 44.7081 22.4708V11.2819C44.7081 10.3961 44.8013 8.15841 44.6149 7.31927C44.2886 5.92069 43.4028 5.50112 42.1906 5.50112C41.6554 5.51635 41.1364 5.68777 40.6973 5.99425C40.2583 6.30074 39.9185 6.72892 39.7197 7.22607C39.3001 8.29827 39.3468 10.0699 39.3468 11.2819V22.4708C39.3388 22.6742 39.2512 22.8663 39.103 23.0058C38.9548 23.1453 38.7578 23.221 38.5543 23.2168H34.4518C34.0322 23.1701 33.7058 22.8439 33.7058 22.4708V11.2819C33.7058 8.95089 34.0787 5.45445 31.1884 5.45445C28.2514 5.45445 28.3446 8.81103 28.3446 11.2819V22.4708C28.3153 22.6702 28.2135 22.8518 28.0586 22.9808C27.9038 23.1099 27.7068 23.1773 27.5054 23.1701V23.17ZM103.496 0.186524C109.603 0.186524 112.913 5.40792 112.913 12.0746C112.913 18.5082 109.277 23.6362 103.496 23.6362C97.5284 23.6362 94.2651 18.4148 94.2651 11.888C94.2184 5.31459 97.5284 0.185957 103.496 0.185957V0.186524ZM103.496 4.52211C100.465 4.52211 100.279 8.67132 100.279 11.2354C100.279 13.7995 100.232 19.3006 103.449 19.3006C106.619 19.3006 106.806 14.8717 106.806 12.1678C106.806 10.3961 106.713 8.25174 106.2 6.57331C105.734 5.0814 104.801 4.52211 103.496 4.52211ZM120.792 23.17H116.689C116.27 23.1233 115.943 22.7971 115.943 22.424V1.30496C115.969 1.11245 116.063 0.935688 116.209 0.807201C116.355 0.678714 116.542 0.607147 116.736 0.605672H120.559C120.732 0.611784 120.899 0.674271 121.033 0.783653C121.168 0.893035 121.263 1.04334 121.305 1.21177V4.4285H121.398C122.563 1.53801 124.148 0.186099 126.992 0.186099C128.81 0.186099 130.629 0.838579 131.794 2.65701C132.866 4.3353 132.866 7.17912 132.866 9.23046V22.5171C132.838 22.7046 132.742 22.875 132.595 22.9955C132.449 23.116 132.263 23.178 132.074 23.1696H127.971C127.598 23.1229 127.272 22.8433 127.225 22.5171V11.0489C127.225 8.71784 127.505 5.36097 124.661 5.36097C123.682 5.36097 122.749 6.01345 122.283 7.03927C121.724 8.34423 121.631 9.60337 121.631 11.0486V22.4245C121.605 22.6292 121.505 22.8176 121.351 22.9548C121.197 23.0919 120.998 23.1685 120.792 23.1704L120.792 23.17ZM66.0137 13.1002C66.0137 14.6853 66.0603 16.0372 65.2677 17.4832C64.6152 18.6487 63.5894 19.348 62.4239 19.348C60.8388 19.348 59.9065 18.136 59.9065 16.3643C59.9065 12.8679 63.03 12.2151 66.0137 12.2151V13.1002ZM70.1629 23.1235C70.03 23.2394 69.8641 23.3108 69.6885 23.3275C69.5129 23.3443 69.3365 23.3055 69.1842 23.2167C67.8322 22.0978 67.5529 21.5384 66.8066 20.466C64.5688 22.7497 62.9371 23.4497 60.0467 23.4497C56.5968 23.4497 53.8929 21.3052 53.8929 17.0628C53.8929 13.7062 55.711 11.4685 58.2758 10.3495C60.5135 9.37075 63.6375 9.18394 66.0147 8.90422V8.39146C66.0147 7.41274 66.1078 6.24693 65.5019 5.40778C64.9891 4.66183 64.0566 4.33559 63.2182 4.33559C61.6331 4.33559 60.2345 5.12807 59.9082 6.8065C59.815 7.17941 59.5819 7.55246 59.2089 7.55246L55.2462 7.13288C54.9199 7.03969 54.5469 6.80664 54.6401 6.29374C55.5724 1.44524 59.9082 0 63.8242 0C65.8288 0 68.4395 0.512764 70.0246 2.0512C72.0292 3.91601 71.8427 6.43416 71.8427 9.13741V15.5243C71.8427 17.4358 72.6352 18.275 73.3812 19.3472C73.6609 19.7201 73.7074 20.1863 73.3812 20.4194C72.4953 21.1186 71.0036 22.424 70.1644 23.1233L70.1629 23.1235ZM12.1675 13.1002C12.1675 14.6853 12.2141 16.0372 11.4215 17.4832C10.769 18.6487 9.74323 19.348 8.5777 19.348C6.9926 19.348 6.06026 18.136 6.06026 16.3643C6.06026 12.8679 9.1838 12.2151 12.1675 12.2151V13.1002ZM16.27 23.1235C16.1371 23.2394 15.9712 23.3108 15.7956 23.3275C15.6201 23.3443 15.4437 23.3055 15.2913 23.2167C13.9394 22.0978 13.6601 21.5384 12.9137 20.466C10.676 22.7497 9.04422 23.4497 6.15388 23.4497C2.70396 23.4497 0 21.3052 0 17.0628C0 13.7062 1.81815 11.4685 4.38296 10.3495C6.62069 9.37075 9.74465 9.18394 12.1218 8.90422V8.39146C12.1218 7.41274 12.215 6.24693 11.609 5.40778C11.0963 4.66183 10.1638 4.33559 9.32536 4.33559C7.74026 4.33559 6.34168 5.12807 6.0153 6.8065C5.92211 7.17941 5.68906 7.55246 5.31601 7.55246L1.35333 7.13288C1.02709 7.03969 0.65404 6.80664 0.747231 6.29374C1.67957 1.44524 6.0153 0 9.93131 0C11.936 0 14.5466 0.512764 16.1317 2.0512C18.1364 3.91601 17.9499 6.43416 17.9499 9.13741V15.5243C17.9499 17.4358 18.7423 18.275 19.4883 19.3472C19.768 19.7201 19.8145 20.1863 19.4883 20.4194C18.6025 21.1186 17.1107 22.424 16.2716 23.1233L16.27 23.1235Z" fill="black"/>
</svg>
