<svg width="90" height="90" viewBox="0 0 90 90" fill="none" xmlns="http://www.w3.org/2000/svg">
<path d="M27.8784 70.6219C28.1888 70.9316 28.1969 71.4296 27.8911 71.7438L26.7713 72.8944C26.458 73.2163 25.9359 73.2225 25.6178 72.9053C24.4791 71.7692 23.3972 70.5939 22.3608 69.399C20.1105 70.8007 17.8457 71.4807 15.3842 71.4807C14.9682 71.4807 14.546 71.4619 14.1176 71.4235C10.7291 71.1206 7.95274 69.7191 5.37875 67.0125C5.06021 66.6783 4.90158 66.2223 4.94241 65.7625C4.98323 65.3019 5.22028 64.882 5.59378 64.6089C8.60717 62.4023 11.6002 61.5147 14.9761 61.8192C15.6558 61.88 16.3049 61.9976 16.9386 62.1485C15.9361 60.5655 15.0539 58.981 14.2936 57.4112C13.6809 57.4896 13.0757 57.5417 12.4836 57.5417C10.3805 57.5417 8.39985 57.0473 6.48976 56.0515C3.46544 54.4553 1.43916 52.0925 0.106676 48.6114C-0.0596632 48.1797 -0.0299311 47.6979 0.185104 47.2891C0.40014 46.8802 0.779908 46.5835 1.22878 46.4746C4.859 45.598 7.94921 45.922 10.9658 47.4962C10.978 47.5027 10.9886 47.5102 11.0007 47.5168C10.7275 46.0196 10.5677 44.5249 10.5034 43.0364C7.39732 42.3487 5.00991 40.9245 3.06671 38.5991C0.883569 35.9875 -0.0879489 33.0329 0.00622958 29.3014C0.0187653 28.8392 0.22914 28.4053 0.582229 28.1086C0.936925 27.8128 1.40155 27.6848 1.85814 27.7539C5.54798 28.3237 8.28205 29.8053 10.4652 32.4153C10.7873 32.8004 11.0746 33.196 11.3445 33.5977C11.7323 31.8345 12.2486 30.119 12.8868 28.4569C10.2751 26.6276 8.61408 24.3924 7.71071 21.4935C6.69998 18.2462 6.93703 15.1457 8.45626 11.7336C8.64301 11.3114 9.00397 10.9905 9.44497 10.8531C9.88919 10.7173 10.3662 10.7746 10.7603 11.0147C13.9495 12.9586 15.905 15.3772 16.9174 18.6258C17.0972 19.2028 17.2232 19.7745 17.3241 20.3447C18.2018 19.1501 19.1585 18.0108 20.1932 16.9284C18.7783 14.4794 18.2073 11.9319 18.4556 9.17681C18.7773 5.7679 20.1804 2.99382 22.872 0.441192C23.2063 0.123299 23.6661 -0.0335579 24.1245 0.00645995C24.5843 0.0488885 25.0034 0.286585 25.2765 0.659442C27.4831 3.68151 28.3715 6.66196 28.0701 10.0394C27.8927 12.0938 27.3011 13.9081 26.2605 15.5851C26.1821 15.7115 26.0863 15.8268 25.9764 15.9265C24.96 16.74 24.124 17.4817 23.3893 18.2125L23.3302 18.2697C17.0038 24.4027 13.6608 32.4956 13.6608 41.6724C13.6608 44.8324 14.1949 48.0534 15.2464 51.2475C15.2521 51.2629 15.266 51.2754 15.271 51.291C15.6511 52.4756 16.1265 53.7154 16.6827 54.9744L16.6868 54.9746C19.0242 60.2047 22.9839 65.7363 27.8784 70.6219ZM89.8149 47.2887C89.5999 46.8799 89.2201 46.5832 88.7713 46.4742C85.141 45.5977 82.0508 45.9217 79.0342 47.4959C79.022 47.5023 79.0114 47.5099 78.9994 47.5165C79.2726 46.0193 79.4323 44.5246 79.4966 43.0361C82.6027 42.3484 84.9901 40.9241 86.9333 38.5988C89.1165 35.9872 90.088 33.0326 89.9938 29.3011C89.9813 28.8389 89.7709 28.405 89.4178 28.1083C89.0631 27.8124 88.5985 27.6845 88.1419 27.7536C84.4521 28.3233 81.718 29.805 79.5349 32.415C79.2128 32.8 78.9254 33.1957 78.6556 33.5973C78.2678 31.8341 77.7514 30.1187 77.1132 28.4566C79.725 26.6273 81.386 24.3921 82.2893 21.4931C83.3001 18.2459 83.063 15.1454 81.5438 11.7333C81.357 11.3111 80.9961 10.9902 80.5551 10.8527C80.1109 10.7169 79.6339 10.7743 79.2398 11.0144C76.0506 12.9583 74.095 15.3768 73.0827 18.6255C72.9028 19.2025 72.7768 19.7741 72.6759 20.3444C71.7982 19.1498 70.8415 18.0105 69.8068 16.9281C71.2217 14.4791 71.7928 11.9316 71.5445 9.17649C71.2227 5.76758 69.8197 2.99349 67.128 0.44087C66.7938 0.122978 66.3339 -0.033879 65.8756 0.00613885C65.4158 0.0485674 64.9966 0.286263 64.7236 0.65912C62.517 3.68119 61.6286 6.66164 61.9299 10.039C62.1073 12.0935 62.6989 13.9078 63.7395 15.5848C63.818 15.7111 63.9138 15.8265 64.0237 15.9262C65.04 16.7397 65.8761 17.4814 66.6107 18.2122L66.6698 18.2694C72.9964 24.4029 76.3394 32.496 76.3394 41.6726C76.3394 44.8325 75.8053 48.0536 74.7538 51.2476C74.7481 51.263 74.7342 51.2756 74.7292 51.2912C74.3491 52.4758 73.8737 53.7155 73.3175 54.9746L73.3134 54.9747C70.9762 60.2049 67.0163 65.7366 62.1218 70.6222C61.8114 70.9319 61.8033 71.4299 62.1091 71.7441L63.2289 72.8947C63.5422 73.2166 64.0643 73.2229 64.3824 72.9056C65.5211 71.7695 66.603 70.5942 67.6394 69.3993C69.8898 70.8011 72.1545 71.4811 74.616 71.4811C75.032 71.4811 75.4542 71.4622 75.8826 71.4238C79.2711 71.1209 82.0475 69.7195 84.6215 67.0129C84.94 66.6786 85.0986 66.2226 85.0578 65.7628C85.017 65.3022 84.7799 64.8823 84.4064 64.6092C81.393 62.4026 78.4 61.515 75.0241 61.8196C74.3444 61.8803 73.6953 61.9979 73.0616 62.1489C74.0641 60.5658 74.9463 58.9813 75.7066 57.4115C76.3193 57.4899 76.9245 57.542 77.5166 57.542C79.6197 57.542 81.6004 57.0476 83.5104 56.0518C86.5348 54.4556 88.561 52.0928 89.8935 48.6117C90.0597 48.1794 90.03 47.6976 89.8149 47.2887ZM57.2608 59.5283C59.5381 57.3027 61.4638 54.8261 62.9753 52.1799C65.9354 47.0909 67.5001 41.2541 67.5001 35.3003C67.5001 30.5989 66.5569 26.0568 64.6971 21.7996C64.4412 21.2141 63.8636 20.836 63.2249 20.836H26.7754C26.1366 20.836 25.5591 21.2143 25.3033 21.7996C23.4433 26.0569 22.5001 30.5989 22.5001 35.3003C22.5001 41.2541 24.0648 47.0909 27.0186 52.169C28.5362 54.8261 30.4621 57.3027 32.7628 59.5511C34.5317 61.2603 36.4826 62.7708 38.5715 64.0524C38.5715 64.1112 38.5715 64.17 38.5715 64.229C38.5715 68.7208 37.5719 73.0911 35.6962 77.0975H54.3038C52.4283 73.0909 51.4287 68.7206 51.4287 64.2288C51.4287 64.17 51.4287 64.1112 51.4287 64.0522C53.5176 62.7708 55.4716 61.2571 57.2608 59.5283ZM56.2501 80.3117H33.7501C31.0914 80.3117 28.9287 82.4744 28.9287 85.1331V88.3474C28.9287 89.2348 29.6476 89.9545 30.5358 89.9545H59.4644C60.3526 89.9545 61.0715 89.2348 61.0715 88.3474V85.1331C61.0715 82.4744 58.9088 80.3117 56.2501 80.3117Z" fill="#2D295F"/>
</svg>
